<svg width="2440" height="1702" viewBox="0 0 2440 1702" fill="none" xmlns="http://www.w3.org/2000/svg">
<mask id="mask0_933_143" style="mask-type:alpha" maskUnits="userSpaceOnUse" x="4" y="0" width="2432" height="1700">
<rect x="4" width="2432" height="1700" fill="#D9D9D9"/>
</mask>
<g mask="url(#mask0_933_143)">
<path d="M2361.37 169.421C2334.34 132.81 2273.02 110.529 2234.62 86.0916C2261.34 82.7645 2296.98 78.5366 2323.73 75.4165C2303.76 33.5876 2274.29 -20.7877 2251.52 -61.1633C2288.11 -22.4721 2335.12 30.7681 2369.97 71.0153C2387.15 69.7802 2410.06 68.3011 2427.24 67.2574C2433.17 95.1921 2437.32 133.18 2439.61 161.655C2471.03 207.189 2510.57 269.538 2539.66 316.607C2509.17 287.985 2466.91 251.579 2434.91 224.662C2428.69 256.856 2417.19 299.134 2408.02 330.617C2395.82 281.771 2376.53 217.427 2361.37 169.421ZM2033.9 396.524C1952.03 362.152 1938.48 357.302 1808.83 310.897C1885.09 287.253 1898.84 283.36 2005.91 253.012C1986.85 170.921 1983.83 161.693 1946.86 48.8378C2014.61 112.565 2018.5 116.752 2118.34 224.159C2181.25 209.368 2190.13 207.529 2275.11 189.915C2260.49 245.056 2257.44 252.796 2220.07 347.538C2279.86 426.957 2283.05 432.069 2364.47 563.071C2295.18 520.978 2285.58 516.133 2168.14 456.901C2133.26 523.712 2126.58 535.292 2062.66 646.065C2055.6 548.303 2053.95 536.844 2033.9 396.524ZM1465.25 778.482C1465.25 778.482 1337.26 721.751 1193.21 653.469C1311.8 627.9 1333.43 622.409 1474.16 586.685C1478.44 455.803 1478.28 443.304 1476.3 290.225C1553.01 400.614 1554.77 403.218 1646.6 539.328C1759.62 506.613 1779.49 500.119 1908.75 457.809C1847.95 558.537 1833.09 580.238 1750.67 700.709C1817.88 809.986 1903.54 959.986 1903.54 959.986L1638 851.79L1463.04 1084.51L1465.25 778.482ZM1127.93 1067.23C1204.64 1183.81 1220.61 1208.08 1286.77 1305.29C1151.88 1257.71 1022.35 1207.2 1022.35 1207.2L878.395 1419.42L860.63 1137.54L619.29 1014.79L869.495 958.351C869.495 958.351 880.472 802.407 891.001 677.25C960.878 802.048 1031.16 916.165 1031.16 916.165L1289.7 839.041L1127.93 1067.23ZM560.782 1384.67C602.1 1333.67 643.521 1282.75 684.871 1231.76C610.815 1246.64 608.245 1247.06 473.651 1268.98C425.625 1201.82 425.625 1201.82 340.971 1064.76C340.621 1141.4 341.044 1149.57 348.016 1285.96C280.234 1294.05 277.971 1294.22 159.201 1302.61C224.742 1342.19 361.017 1411.67 361.017 1411.67L384.446 1622.06C384.446 1622.06 428.842 1549.39 491.492 1470.42C561.8 1499.83 567.112 1501.74 703.214 1550.73C653.163 1496.74 653.163 1496.74 560.782 1384.67ZM128.908 1550.22C149.379 1528.22 177.894 1500.03 199.668 1479.31C157.507 1470 101.55 1456.35 59.7673 1445.43C28.5342 1391.28 -10.5028 1317.58 -38.5422 1261.71C-34.4366 1309.76 -25.7849 1373.56 -17.609 1421.08C-49.8959 1408.95 -92.361 1391.2 -123.793 1377C-85.3055 1418.8 -32.0792 1472.8 8.67446 1512.38C25.3935 1553.26 51.0371 1606.38 71.8609 1645.32C77.9432 1627.83 89.1024 1605.59 98.3161 1589.51C142.936 1624.1 203.604 1668.69 249.65 1701.36C212.025 1657.18 163.957 1596.48 128.908 1550.22Z" fill="#FFD500"/>
</g>
</svg>
